<svg xmlns="http://www.w3.org/2000/svg" viewBox="0 0 16.75 16.75"><defs><style>.cls-1{fill:#a5a8a9;fill-rule:evenodd;}</style></defs><g id="Capa_2" data-name="Capa 2"><g id="Layer_1" data-name="Layer 1"><path class="cls-1" d="M8.37,0A8.39,8.39,0,0,0,0,8.37a8.26,8.26,0,0,0,1.34,4.54L.07,15.71a.73.73,0,0,0,.66,1,.58.58,0,0,0,.19,0l3.51-1A8.37,8.37,0,1,0,8.37,0Zm0,15.28a6.88,6.88,0,0,1-3.48-.94.79.79,0,0,0-.37-.1.63.63,0,0,0-.19,0L2,14.9l.8-1.76a.73.73,0,0,0-.07-.73,6.82,6.82,0,0,1-1.31-4,6.91,6.91,0,1,1,6.91,6.91Z"/><path class="cls-1" d="M11.59,9.63a1.43,1.43,0,0,0-1.22-.28c-.31.13-.52.63-.72.88a.31.31,0,0,1-.39.09A5.52,5.52,0,0,1,6.5,8a.34.34,0,0,1,0-.46A1.81,1.81,0,0,0,7,6.68a1.79,1.79,0,0,0-.22-1,2.35,2.35,0,0,0-.71-1.07,1,1,0,0,0-1.06.15A2.18,2.18,0,0,0,4.3,6.5,3.06,3.06,0,0,0,4.37,7a4.41,4.41,0,0,0,.52,1.2c.16.28.35.55.54.82a8.68,8.68,0,0,0,2.34,2.18,7.3,7.3,0,0,0,1.47.69,3.2,3.2,0,0,0,1.7.27,2,2,0,0,0,1.54-1.15.9.9,0,0,0,.07-.58C12.47,10.06,11.92,9.82,11.59,9.63Z"/></g></g></svg>