<svg xmlns="http://www.w3.org/2000/svg" viewBox="0 0 7.77 16.92"><defs><style>.cls-1{fill:#a5a8a9;}</style></defs><g id="Capa_2" data-name="Capa 2"><g id="Layer_1" data-name="Layer 1"><path class="cls-1" d="M2,16.92c-.19-.16-.17-.37-.17-.59,0-2.13,0-4.25,0-6.38,0-.34-.08-.48-.44-.45s-.65,0-1,0A.39.39,0,0,1,0,9.08V6.94a.38.38,0,0,1,.43-.41c.37,0,.73,0,1.09,0s.35-.1.35-.36A17,17,0,0,1,1.91,4a4.6,4.6,0,0,1,3.64-4L5.8,0H7.61a.7.7,0,0,1,.16.48v2c0,.4-.12.5-.52.51H6.5A1.65,1.65,0,0,0,4.85,4.61c0,.52,0,1,0,1.54,0,.28.09.38.37.38.58,0,1.15,0,1.73,0,.42,0,.53.12.53.54q0,1,0,1.92c0,.43-.1.52-.54.52H5.39c-.54,0-.54,0-.54.56v6.27c0,.22,0,.44-.18.59Z"/></g></g></svg>