<svg xmlns="http://www.w3.org/2000/svg" viewBox="0 0 16.92 16.92"><defs><style>.cls-1{fill:#a5a8a9;}</style></defs><g id="Capa_2" data-name="Capa 2"><g id="Layer_1" data-name="Layer 1"><path class="cls-1" d="M12.41,16.92H4.51a5.48,5.48,0,0,1-3.39-2A6,6,0,0,1,0,12.48v-8A6.52,6.52,0,0,1,.75,2.49,5.46,5.46,0,0,1,4.51,0h7.9a5.7,5.7,0,0,1,2.68,1.24,5.55,5.55,0,0,1,1.83,3.27v7.9a6,6,0,0,1-.7,1.92A5.45,5.45,0,0,1,12.41,16.92ZM1.61,8.16c0,1.29,0,2.33,0,3.37A3.67,3.67,0,0,0,5.37,15.3q3.08,0,6.17,0a3.66,3.66,0,0,0,3.76-3.72c0-2.06,0-4.11,0-6.17a3.66,3.66,0,0,0-3.74-3.79q-3.09,0-6.2,0a3.6,3.6,0,0,0-3.7,3.29A30.21,30.21,0,0,0,1.61,8.16Z"/><path class="cls-1" d="M8.44,12.73A4.27,4.27,0,1,1,12.73,8.5,4.28,4.28,0,0,1,8.44,12.73Zm0-1.68A2.59,2.59,0,1,0,5.87,8.44,2.56,2.56,0,0,0,8.45,11.05Z"/><path class="cls-1" d="M13,3.32a.61.61,0,0,1,.57.62A.61.61,0,0,1,13,4.5a.62.62,0,0,1-.6-.6A.63.63,0,0,1,13,3.32Z"/></g></g></svg>