<svg xmlns="http://www.w3.org/2000/svg" viewBox="0 0 20.15 20.15"><defs><style>.cls-1{fill:#a5a8a9;}</style></defs><g id="Capa_2" data-name="Capa 2"><g id="Layer_1" data-name="Layer 1"><path class="cls-1" d="M14.78,20.15H5.37a6.52,6.52,0,0,1-4-2.34A7.16,7.16,0,0,1,0,14.87V5.28A7.41,7.41,0,0,1,.9,3,6.45,6.45,0,0,1,5.37,0h9.41A6.83,6.83,0,0,1,18,1.48a6.62,6.62,0,0,1,2.17,3.89v9.41a7,7,0,0,1-.83,2.29A6.47,6.47,0,0,1,14.78,20.15ZM1.92,9.72c0,1.53,0,2.77,0,4a4.39,4.39,0,0,0,4.48,4.5q3.66,0,7.34,0a4.39,4.39,0,0,0,4.49-4.44q0-3.67,0-7.35a4.36,4.36,0,0,0-4.45-4.51q-3.7-.06-7.39,0A4.32,4.32,0,0,0,2,5.85C1.8,7.23,2,8.63,1.92,9.72Z"/><path class="cls-1" d="M10.05,15.16a5.09,5.09,0,1,1,5.11-5A5.09,5.09,0,0,1,10.05,15.16Zm0-2a3.08,3.08,0,0,0,0-6.16A3,3,0,0,0,7,10.06,3,3,0,0,0,10.07,13.16Z"/><path class="cls-1" d="M15.52,4a.75.75,0,0,1,.68.74.71.71,0,0,1-1.41,0A.74.74,0,0,1,15.52,4Z"/></g></g></svg>