<svg xmlns="http://www.w3.org/2000/svg" viewBox="0 0 17.23 17.23"><defs><style>.cls-1{fill:#fff;fill-rule:evenodd;}</style></defs><g id="Capa_2" data-name="Capa 2"><g id="Layer_1" data-name="Layer 1"><path class="cls-1" d="M14.12,13.11A7.09,7.09,0,0,1,5,14.76a.75.75,0,0,0-.38-.1l-.2,0-2.36.65.82-1.81a.77.77,0,0,0-.07-.75A7,7,0,0,1,1.5,8.62a7.12,7.12,0,1,1,13.84,2.32,9.84,9.84,0,0,1,1.42.47,8.38,8.38,0,0,0,.47-2.79A8.62,8.62,0,1,0,0,8.62a8.51,8.51,0,0,0,1.38,4.67L.07,16.17a.75.75,0,0,0,.11.8.76.76,0,0,0,.57.26l.2,0,3.61-1a8.62,8.62,0,0,0,10.66-2.08A7.63,7.63,0,0,1,14.12,13.11Z"/></g></g></svg>